HIERARCHY
ROOT Hips
{
	OFFSET 0.000000 0.000000 0.000000 
	CHANNELS 6 Xposition Yposition Zposition Yrotation Zrotation Xrotation 
	JOINT Lumbar
	{
		OFFSET 0.000000 0.000000 0.000000 
		CHANNELS 3 Zrotation Xrotation Yrotation
		JOINT Neck
		{
			OFFSET 0.000000 0.445665 0.000000 
			CHANNELS 3 Zrotation Xrotation Yrotation
			End Site
			{
				OFFSET 0.000000 0.227535 0.000000 
			}
		}
		JOINT RightShoulder
		{
			OFFSET 0.019635 0.377685 0.194865 
			CHANNELS 3 Zrotation Xrotation Yrotation
			JOINT RightElbow
			{
				OFFSET 0.000000 -0.243375 0.000000 
				CHANNELS 2 Zrotation Yrotation
				JOINT RightWrist
				{
					OFFSET 0.000000 -0.264825 0.000000 
					CHANNELS 2 Zrotation Xrotation
					End Site
					{
						OFFSET 0.006600 -0.176220 0.000990 
					}
				}
			}
		}
		JOINT LeftShoulder
		{
			OFFSET 0.019635 0.377685 -0.194865 
			CHANNELS 3 Zrotation Xrotation Yrotation
			JOINT LeftElbow
			{
				OFFSET 0.000000 -0.243375 0.000000 
				CHANNELS 2 Zrotation Yrotation
				JOINT LeftWrist
				{
					OFFSET 0.000000 -0.264825 0.000000 
					CHANNELS 2 Zrotation Xrotation
					End Site
					{
						OFFSET 0.006600 -0.176220 -0.000990 
					}
				}
			}
		}
	}
	JOINT RightHip
	{
		OFFSET 0.052140 -0.069960 0.075570 
		CHANNELS 3 Zrotation Xrotation Yrotation
		JOINT RightKnee
		{
			OFFSET 0.000000 -0.402270 0.000000 
			CHANNELS 1 Zrotation
			JOINT RightAnkle
			{
				OFFSET 0.000000 -0.404085 0.000000 
				CHANNELS 3 Zrotation Xrotation Yrotation
				End Site
				{
					OFFSET 0.204105 -0.089430 0.008415 
				}
			}
		}
	}
	JOINT LeftHip
	{
		OFFSET 0.052140 -0.069960 -0.075570 
		CHANNELS 3 Zrotation Xrotation Yrotation
		JOINT LeftKnee
		{
			OFFSET 0.000000 -0.402270 0.000000 
			CHANNELS 1 Zrotation
			JOINT LeftAnkle
			{
				OFFSET 0.000000 -0.404085 0.000000 
				CHANNELS 3 Zrotation Xrotation Yrotation
				End Site
				{
					OFFSET 0.204105 -0.089430 -0.008415 
				}
			}
		}
	}
}
MOTION
Frames: 25
Frame Time: 0.02
-0.0207 0.94968 0.4882 172.73586 0 -7.90108 0.77534 5.61135 -2.89327 -49.35667 4.90202 5.71065 49.35341 -19.80202 62.15668 92.58719 151.24666 -26.08931 -18.0209 43.97769 3.33585 -61.78127 71.97867 -152.36753 -46.26059 16.26994 -0.76855 10.90095 -4.59299 -9.99593 3.77524 -5.59392 -9.62215 9.18996 19.6612 12.71233 -15.71651 3.71712 6.06144 13.25632
-0.01824 0.94932 0.48639 172.5375 0 -8.08262 0.88295 5.81281 -2.74808 -49.59323 4.91763 5.89471 49.58108 -19.86593 62.15384 92.55948 151.18122 -25.92835 -18.02076 44.20342 3.24483 -61.77156 71.84465 -152.27968 -46.19922 16.23121 -0.58301 11.14034 -4.81243 -10.07388 3.80833 -5.51347 -9.10265 9.27126 19.88101 12.51358 -15.82652 3.76689 6.09353 13.16531
-0.01632 0.94864 0.48469 172.37413 0 -8.38698 1.07698 6.08253 -2.5958 -50.00794 4.9786 6.17966 49.97469 -20.00836 62.14782 92.50135 151.1006 -25.73407 -18.02049 44.64027 3.02154 -61.7671 71.52134 -152.32774 -46.30275 16.24847 -0.45095 11.47228 -5.17068 -10.1239 3.87 -5.41486 -8.41021 9.32778 20.33488 12.31309 -15.64434 3.61791 6.06447 13.07253
-0.01416 0.94813 0.48295 172.19673 0 -8.62826 1.22943 6.31277 -2.44956 -50.328 5.01762 6.41518 50.28013 -20.10881 62.14343 92.4566 151.03174 -25.56666 -18.02028 44.96747 2.86594 -61.76062 71.29358 -152.31656 -46.32805 16.24164 -0.29221 11.75456 -5.47356 -10.19202 3.91948 -5.31817 -7.79659 9.39938 20.67414 12.12565 -15.60918 3.56423 6.06354 12.981
-0.01198 0.94755 0.4812 172.00992 0 -8.9001 1.39193 6.5779 -2.28949 -50.70439 5.06109 6.66746 50.63842 -20.23536 62.13829 92.41409 150.94265 -25.35035 -18.02007 45.35073 2.67948 -61.75267 71.02797 -152.29274 -46.36401 16.22844 -0.14138 12.06829 -5.73583 -10.24164 3.96576 -5.24892 -7.18986 9.45906 21.04821 11.90164 -15.52402 3.49275 6.06219 12.88841
-0.00998 0.94702 0.47948 171.85196 0 -9.13765 1.55399 6.78746 -2.15717 -51.00617 5.10607 6.90757 50.92648 -20.32664 62.13396 92.35978 150.89169 -25.22708 -18.01984 45.66806 2.52543 -61.749 70.79532 -152.32789 -46.41778 16.2419 0.01178 12.33874 -6.11856 -10.32071 4.02516 -5.11797 -6.52509 9.53593 21.40528 11.74713 -15.46916 3.40992 6.04691 12.79755
-0.0083 0.94674 0.4778 171.76092 0 -9.24844 1.6926 6.81967 -2.1049 -51.06039 5.14969 7.09667 50.97953 -20.29809 62.13256 92.27721 150.95319 -25.37723 -18.01955 45.75177 2.49365 -61.7559 70.70007 -152.49751 -46.48557 16.31708 0.19205 12.4669 -6.80224 -10.49738 4.11701 -4.82061 -5.73761 9.66809 21.65922 11.79021 -15.57619 3.34406 6.00686 12.70853
-0.00678 0.94653 0.47617 171.69875 0 -9.32082 1.82789 6.79492 -2.08087 -51.0334 5.19254 7.26849 50.95655 -20.2318 62.13209 92.18419 151.05294 -25.6206 -18.01925 45.76222 2.49891 -61.7669 70.64422 -152.72112 -46.56541 16.41687 0.37483 12.54841 -7.60305 -10.70232 4.22045 -4.46186 -4.89751 9.81746 21.88779 11.90033 -15.7211 3.27315 5.95494 12.62162
-0.00522 0.94628 0.47454 171.62616 0 -9.41214 1.96543 6.80105 -2.04296 -51.04228 5.23227 7.44341 50.96864 -20.18514 62.13124 92.09807 151.13293 -25.81589 -18.01898 45.8062 2.48663 -61.77603 70.56991 -152.91731 -46.63653 16.50443 0.55137 12.65146 -8.35003 -10.88773 4.31658 -4.1313 -4.08328 9.95724 22.12732 11.97403 -15.84301 3.20437 5.90917 12.53602
-0.00358 0.94604 0.4728 171.543 0 -9.50163 2.10305 6.78867 -2.00877 -51.06105 5.28794 7.64223 50.98373 -20.13143 62.13011 92.00233 151.22247 -26.0343 -18.01863 45.85591 2.4723 -61.78546 70.49122 -153.13082 -46.72597 16.59862 0.74784 12.75633 -9.10455 -11.10076 4.42256 -3.79849 -3.25445 10.10382 22.37744 12.07254 -15.97967 3.12969 5.85823 12.44153
-0.00212 0.9458 0.47129 171.4887 0 -9.58404 2.23833 6.80017 -1.97417 -51.03845 5.31 7.78548 50.97312 -20.08157 62.12983 91.9239 151.30132 -26.22693 -18.01842 45.87433 2.47333 -61.79507 70.43365 -153.31878 -46.77931 16.68376 0.90377 12.84509 -9.86902 -11.2629 4.51012 -3.4565 -2.44632 10.2405 22.5964 12.13595 -16.09794 3.06833 5.81584 12.36518
-0.00114 0.94557 0.47042 171.50288 0 -9.65684 2.36954 6.89317 -1.92703 -50.91364 5.236 7.78223 50.90272 -20.05874 62.13173 91.90156 151.34222 -26.32759 -18.01868 45.81627 2.50325 -61.80507 70.42414 -153.42745 -46.71801 16.74097 0.95026 12.90074 -10.63359 -11.28144 4.54618 -3.10062 -1.70515 10.34632 22.73451 12.07942 -16.1607 3.04886 5.80179 12.34613
-0.00034 0.94535 0.46979 171.54558 0 -9.72306 2.49769 7.01146 -1.87932 -50.75054 5.12857 7.72274 50.80956 -20.03945 62.13448 91.89616 151.37107 -26.39904 -18.01912 45.72959 2.54881 -61.81498 70.43561 -153.5074 -46.62133 16.78755 0.95567 12.94134 -11.40214 -11.24736 4.5628 -2.73879 -0.98902 10.44141 22.84103 11.98648 -16.20405 3.04322 5.79672 12.34399
0.00053 0.94513 0.46904 171.5779 0 -9.79141 2.62588 7.1168 -1.83497 -50.6093 5.03854 7.6866 50.73094 -20.01337 62.13678 91.87933 151.40472 -26.48248 -18.0194 45.6603 2.59082 -61.82428 70.43884 -153.59636 -46.54803 16.83643 0.97797 12.98839 -12.1687 -11.23482 4.58663 -2.38157 -0.26301 10.54128 22.96166 11.91446 -16.25498 3.02972 5.78663 12.32882
0.00142 0.94489 0.4683 171.60085 0 -9.86238 2.76009 7.22651 -1.77884 -50.44669 4.9394 7.65889 50.63239 -20.00759 62.1393 91.87761 151.44198 -26.57386 -18.01985 45.57045 2.61915 -61.83629 70.43783 -153.70275 -46.44477 16.8961 1.00735 13.03548 -12.94459 -11.23268 4.61747 -2.01239 0.47533 10.64277 23.08308 11.82614 -16.31307 3.02265 5.78 12.33558
0.00224 0.94469 0.46761 171.64908 0 -9.92648 2.88057 7.33367 -1.74631 -50.32031 4.85103 7.60095 50.57052 -19.96125 62.14164 91.84891 151.4691 -26.64146 -18.02019 45.51707 2.67906 -61.8428 70.45019 -153.7673 -46.39492 16.93146 1.01281 13.07954 -13.69492 -11.19674 4.62925 -1.66968 1.17624 10.73732 23.19505 11.76247 -16.35022 3.00546 5.76851 12.30153
0.0029 0.94455 0.46698 171.76551 0 -9.97597 2.96781 7.42927 -1.78289 -50.30547 4.80305 7.46906 50.61914 -19.7988 62.14291 91.73876 151.4671 -26.64393 -18.01929 45.57564 2.82359 -61.83219 70.49408 -153.70511 -46.50435 16.89291 0.95702 13.11854 -14.42222 -11.07372 4.59011 -1.38273 1.82494 10.82212 23.29349 11.77354 -16.34254 2.958 5.74116 12.14304
0.00349 0.94445 0.46639 171.90534 0 -10.01845 3.04059 7.52137 -1.84242 -50.32842 4.76671 7.30954 50.70533 -19.59638 62.14431 91.60149 151.4576 -26.62541 -18.01909 45.67144 2.99884 -61.81635 70.55052 -153.60449 -46.66805 16.83167 0.87939 13.15521 -15.11538 -10.91944 4.53282 -1.12591 2.42944 10.89898 23.3827 11.8106 -16.31275 2.89973 5.70871 11.94432
0.00412 0.94433 0.46579 172.03067 0 -10.0625 3.11741 7.6143 -1.88877 -50.33309 4.7233 7.16555 50.77208 -19.41433 62.14554 91.47845 151.45187 -26.61883 -18.01829 45.74777 3.15923 -61.80422 70.60132 -153.53369 -46.8048 16.7871 0.81536 13.19357 -15.78995 -10.78386 4.48592 -0.86861 3.02275 10.9749 23.47306 11.83708 -16.28751 2.84578 5.67884 11.76899
0.00473 0.94421 0.46517 172.17297 0 -10.11306 3.20483 7.71144 -1.9466 -50.34105 4.6858 7.0071 50.84724 -19.2223 62.14615 91.34776 151.43723 -26.5963 -18.01599 45.83384 3.3245 -61.78665 70.65289 -153.41152 -46.95012 16.7162 0.73501 13.22911 -16.603 -10.62814 4.42987 -0.55747 3.74199 11.06958 23.57517 11.85778 -16.2848 2.79481 5.6482 11.57267
0.00535 0.94411 0.4646 172.28558 0 -10.14853 3.26673 7.79846 -1.98614 -50.35163 4.63975 6.87287 50.91503 -19.04251 62.14947 91.22658 151.44828 -26.60848 -18.02036 45.90882 3.48605 -61.77895 70.70523 -153.3854 -47.09078 16.6938 0.68324 13.26965 -17.12661 -10.50679 4.38813 -0.36296 4.19536 11.12356 23.65099 11.89634 -16.23022 2.73487 5.61781 11.41033
0.00602 0.94409 0.46419 172.30623 0 -10.14389 3.26214 7.86011 -1.96794 -50.36062 4.56238 6.81322 50.94488 -18.89759 62.14722 91.13626 151.4513 -26.66528 -18.01197 45.94453 3.63521 -61.80152 70.75934 -153.65301 -47.20663 16.8204 0.72246 13.32943 -16.79634 -10.4955 4.39628 -0.50749 3.86791 11.06603 23.65709 11.98536 -16.03737 2.65299 5.58966 11.35097
0.00671 0.9441 0.46382 172.29678 0 -10.12438 3.23228 7.91127 -1.93083 -50.37106 4.477 6.77905 50.96726 -18.76777 62.14946 91.05676 151.49157 -26.76552 -18.01455 45.96784 3.77849 -61.83388 70.81322 -154.01529 -47.31573 16.99493 0.79016 13.39358 -16.18693 -10.51874 4.4185 -0.76416 3.28465 10.96803 23.63714 12.09048 -15.79327 2.56236 5.56184 11.32712
0.00739 0.9441 0.46343 172.30386 0 -10.11181 3.21372 7.96602 -1.90347 -50.38079 4.39871 6.73287 50.99926 -18.63701 62.15898 90.97353 151.57288 -26.88659 -18.03441 45.99666 3.92079 -61.86058 70.86529 -154.32173 -47.42738 17.14126 0.8406 13.45252 -15.74752 -10.52152 4.4304 -0.95318 2.85712 10.88937 23.62881 12.18315 -15.57302 2.47552 5.53365 11.28749
0.00809 0.94409 0.46305 172.30005 0 -10.09817 3.19548 8.02567 -1.87211 -50.39208 4.30652 6.6874 51.00808 -18.48075 62.13182 90.88425 151.4256 -26.84738 -17.96655 46.02732 4.0795 -61.89216 70.92578 -154.68053 -47.54361 17.31366 0.90839 13.52465 -15.12786 -10.5433 4.45795 -1.21246 2.26395 10.80657 23.62087 12.29733 -15.34962 2.38901 5.50624 11.24536
